<svg width="27" height="27" viewBox="0 0 27 27" fill="none" xmlns="http://www.w3.org/2000/svg">
<path d="M13.7065 0C14.3969 0 14.9565 0.559644 14.9565 1.25V12H25.7065C26.3969 12 26.9565 12.5596 26.9565 13.25C26.9565 13.9404 26.3969 14.5 25.7065 14.5H14.9565V25.25C14.9565 25.9404 14.3969 26.5 13.7065 26.5C13.0162 26.5 12.4565 25.9404 12.4565 25.25V14.5H1.70654C1.01619 14.5 0.456543 13.9404 0.456543 13.25C0.456543 12.5596 1.01619 12 1.70654 12H12.4565V1.25C12.4565 0.559644 13.0162 0 13.7065 0Z" fill="white"/>
</svg>
