<svg width="25" height="24" viewBox="0 0 25 24" fill="none" xmlns="http://www.w3.org/2000/svg">
<path d="M24 12C24 12.5863 23.5988 13.0615 23.1039 13.0615H4.08546L11.4854 21.6816C11.8383 22.0926 11.8431 22.7647 11.4961 23.1827C11.1491 23.6008 10.5817 23.6064 10.2288 23.1954L1.26934 12.7587C1.26758 12.7566 1.26582 12.7546 1.26406 12.7525C1.26174 12.7498 1.25945 12.747 1.25716 12.7443C0.955111 12.3804 0.919598 11.824 1.14821 11.4149C1.16992 11.376 1.19401 11.3385 1.22048 11.3026C1.23224 11.2866 1.24447 11.271 1.25716 11.2557C1.25821 11.2545 1.25925 11.2532 1.2603 11.2519C1.26765 11.2431 1.27501 11.2345 1.28236 11.2261L10.2288 0.804637C10.5817 0.393578 11.1491 0.399226 11.4961 0.817252C11.8431 1.23528 11.8383 1.90738 11.4854 2.31844L4.08546 10.9385H23.1039C23.5988 10.9385 24 11.4137 24 12Z" fill="#909090" stroke="#909090" stroke-linecap="round" stroke-linejoin="round"/>
</svg>
