<svg width="26" height="21" viewBox="0 0 26 21" fill="none" xmlns="http://www.w3.org/2000/svg">
<path d="M16.525 0.825012C16.2768 1.26962 16.0555 1.72879 15.8625 2.20001C13.966 1.90008 12.0341 1.90008 10.1375 2.20001C9.94451 1.72879 9.72327 1.26962 9.47502 0.825012C7.68851 1.13026 5.95177 1.67693 4.31252 2.45001C1.38119 6.68037 0.051815 11.8162 0.562518 16.9375C2.47282 18.3736 4.61684 19.4689 6.90002 20.175C7.41991 19.4883 7.8839 18.7609 8.28752 18C7.54261 17.7254 6.82664 17.3778 6.15002 16.9625C6.3356 16.839 6.51114 16.7011 6.67502 16.55C8.64809 17.5004 10.81 17.9939 13 17.9939C15.1901 17.9939 17.3519 17.5004 19.325 16.55C19.5 16.7 19.675 16.8375 19.85 16.9625C19.1697 17.3746 18.4545 17.7259 17.7125 18.0125C18.0994 18.7907 18.551 19.535 19.0625 20.2375C21.3428 19.5338 23.4832 18.4382 25.3875 17C25.9105 11.8778 24.58 6.73774 21.6375 2.51251C20.0167 1.72343 18.2971 1.15585 16.525 0.825012ZM8.85002 14.0125C8.2245 13.9676 7.6407 13.6821 7.22117 13.216C6.80164 12.7498 6.57901 12.1393 6.60002 11.5125C6.57584 10.8849 6.79738 10.2726 7.21753 9.80577C7.63769 9.33893 8.22334 9.05435 8.85002 9.01251C9.47669 9.05435 10.0623 9.33893 10.4825 9.80577C10.9027 10.2726 11.1242 10.8849 11.1 11.5125C11.1242 12.1401 10.9027 12.7524 10.4825 13.2192C10.0623 13.6861 9.47669 13.9707 8.85002 14.0125ZM17.15 14.0125C16.5245 13.9676 15.9407 13.6821 15.5212 13.216C15.1016 12.7498 14.879 12.1393 14.9 11.5125C14.8758 10.8849 15.0974 10.2726 15.5175 9.80577C15.9377 9.33893 16.5233 9.05435 17.15 9.01251C17.7779 9.05123 18.3654 9.33489 18.7862 9.80245C19.207 10.27 19.4274 10.8841 19.4 11.5125C19.4274 12.1409 19.207 12.755 18.7862 13.2226C18.3654 13.6901 17.7779 13.9738 17.15 14.0125Z" fill="#909090"/>
</svg>
