<svg width="30" height="31" viewBox="0 0 30 31" fill="none" xmlns="http://www.w3.org/2000/svg">
<path d="M26.1836 10.8813C26.171 9.93454 25.9938 8.99723 25.6598 8.11126C25.3703 7.36395 24.928 6.68526 24.3613 6.11855C23.7946 5.55184 23.1159 5.10957 22.3686 4.82001C21.494 4.4917 20.5701 4.31418 19.6361 4.29501C18.4336 4.24126 18.0523 4.22626 14.9998 4.22626C11.9473 4.22626 11.5561 4.22626 10.3623 4.29501C9.42879 4.31432 8.50528 4.49184 7.63109 4.82001C6.88367 5.10937 6.20487 5.55156 5.63813 6.1183C5.0714 6.68503 4.62921 7.36383 4.33984 8.11126C4.01088 8.98517 3.83375 9.9089 3.81609 10.8425C3.76234 12.0463 3.74609 12.4275 3.74609 15.48C3.74609 18.5325 3.74609 18.9225 3.81609 20.1175C3.83484 21.0525 4.01109 21.975 4.33984 22.8513C4.62969 23.5985 5.07221 24.277 5.63914 24.8435C6.20606 25.41 6.88492 25.852 7.63234 26.1413C8.50414 26.4828 9.42781 26.673 10.3636 26.7038C11.5673 26.7575 11.9486 26.7738 15.0011 26.7738C18.0536 26.7738 18.4448 26.7738 19.6386 26.7038C20.5725 26.6854 21.4965 26.5083 22.3711 26.18C23.1182 25.8901 23.7967 25.4477 24.3634 24.8811C24.9301 24.3144 25.3724 23.6359 25.6623 22.8888C25.9911 22.0138 26.1673 21.0913 26.1861 20.155C26.2398 18.9525 26.2561 18.5713 26.2561 15.5175C26.2536 12.465 26.2536 12.0775 26.1836 10.8813ZM14.9923 21.2525C11.7998 21.2525 9.21359 18.6663 9.21359 15.4738C9.21359 12.2813 11.7998 9.69501 14.9923 9.69501C16.525 9.69501 17.9948 10.3038 19.0785 11.3876C20.1623 12.4713 20.7711 13.9411 20.7711 15.4738C20.7711 17.0064 20.1623 18.4762 19.0785 19.5599C17.9948 20.6437 16.525 21.2525 14.9923 21.2525ZM21.0011 10.8288C20.8241 10.8289 20.6488 10.7942 20.4852 10.7265C20.3217 10.6589 20.1731 10.5596 20.0479 10.4345C19.9227 10.3093 19.8235 10.1607 19.7558 9.99712C19.6882 9.83356 19.6534 9.65826 19.6536 9.48126C19.6536 9.30438 19.6884 9.12924 19.7561 8.96583C19.8238 8.80242 19.923 8.65394 20.0481 8.52887C20.1732 8.4038 20.3216 8.30459 20.485 8.23691C20.6485 8.16922 20.8236 8.13438 21.0005 8.13438C21.1773 8.13438 21.3525 8.16922 21.5159 8.23691C21.6793 8.30459 21.8278 8.4038 21.9529 8.52887C22.0779 8.65394 22.1771 8.80242 22.2448 8.96583C22.3125 9.12924 22.3473 9.30438 22.3473 9.48126C22.3473 10.2263 21.7448 10.8288 21.0011 10.8288Z" fill="#909090"/>
<path d="M14.9925 19.2275C17.0657 19.2275 18.7463 17.5469 18.7463 15.4738C18.7463 13.4006 17.0657 11.72 14.9925 11.72C12.9194 11.72 11.2388 13.4006 11.2388 15.4738C11.2388 17.5469 12.9194 19.2275 14.9925 19.2275Z" fill="#909090"/>
</svg>
