<svg width="238" height="50" viewBox="0 0 238 50" fill="none" xmlns="http://www.w3.org/2000/svg">
<path d="M23.92 46.768C20.5493 46.768 17.4133 46.1707 14.512 44.976C11.6107 43.7813 9.072 42.1173 6.896 39.984C4.76267 37.8507 3.07733 35.376 1.84 32.56C0.645333 29.7013 0.0480001 26.6293 0.0480001 23.344C0.0480001 20.016 0.645333 16.944 1.84 14.128C3.03467 11.312 4.69867 8.85867 6.832 6.768C9.008 4.63466 11.5253 2.992 14.384 1.84C17.2853 0.64533 20.4213 0.0479965 23.792 0.0479965C27.2053 0.0479965 30.3413 0.64533 33.2 1.84C36.1013 2.992 38.6187 4.63466 40.752 6.768C42.928 8.85867 44.6133 11.3333 45.808 14.192C47.0027 17.008 47.6 20.08 47.6 23.408C47.6 26.6933 47.0027 29.7653 45.808 32.624C44.6133 35.44 42.928 37.9147 40.752 40.048C38.6187 42.1387 36.1227 43.7813 33.264 44.976C30.4053 46.1707 27.2907 46.768 23.92 46.768ZM23.792 37.616C26.5227 37.616 28.8907 37.0187 30.896 35.824C32.9013 34.6293 34.4587 32.9653 35.568 30.832C36.72 28.656 37.296 26.16 37.296 23.344C37.296 21.2107 36.976 19.2907 36.336 17.584C35.696 15.8347 34.7787 14.3413 33.584 13.104C32.3893 11.824 30.96 10.864 29.296 10.224C27.6747 9.54133 25.84 9.2 23.792 9.2C21.104 9.2 18.7573 9.79733 16.752 10.992C14.7467 12.144 13.168 13.7867 12.016 15.92C10.9067 18.0107 10.352 20.4853 10.352 23.344C10.352 25.4773 10.672 27.4187 11.312 29.168C11.952 30.9173 12.8693 32.432 14.064 33.712C15.2587 34.9493 16.6667 35.9093 18.288 36.592C19.952 37.2747 21.7867 37.616 23.792 37.616ZM44.08 49.584L22.96 28.464L28.784 22.64L49.904 43.76L44.08 49.584ZM67.7175 46.704C64.8588 46.704 62.3202 46.128 60.1015 44.976C57.9255 43.7813 56.2188 42.16 54.9815 40.112C53.7442 38.0213 53.1255 35.632 53.1255 32.944V14.896H62.9175V32.816C62.9175 33.8827 63.0882 34.8 63.4295 35.568C63.8135 36.336 64.3682 36.9333 65.0935 37.36C65.8188 37.7867 66.6935 38 67.7175 38C69.1682 38 70.3202 37.552 71.1735 36.656C72.0268 35.7173 72.4535 34.4373 72.4535 32.816V14.896H82.2455V32.88C82.2455 35.6107 81.6268 38.0213 80.3895 40.112C79.1522 42.16 77.4455 43.7813 75.2695 44.976C73.0935 46.128 70.5762 46.704 67.7175 46.704ZM103.753 46.704C100.383 46.704 97.3748 46.0213 94.7295 44.656C92.1268 43.248 90.0788 41.3067 88.5855 38.832C87.0922 36.3573 86.3455 33.5627 86.3455 30.448C86.3455 27.3333 87.0708 24.56 88.5215 22.128C90.0148 19.6533 92.0202 17.712 94.5375 16.304C97.0548 14.896 99.8922 14.192 103.05 14.192C106.122 14.192 108.831 14.8533 111.178 16.176C113.524 17.4987 115.359 19.3333 116.682 21.68C118.047 24.0267 118.729 26.7147 118.729 29.744C118.729 30.2987 118.687 30.896 118.602 31.536C118.559 32.1333 118.452 32.8373 118.282 33.648L91.4655 33.712V26.992L114.122 26.928L109.898 29.744C109.855 27.952 109.578 26.48 109.066 25.328C108.554 24.1333 107.786 23.2373 106.762 22.64C105.78 22 104.564 21.68 103.114 21.68C101.578 21.68 100.234 22.0427 99.0815 22.768C97.9722 23.4507 97.0975 24.432 96.4575 25.712C95.8602 26.992 95.5615 28.5493 95.5615 30.384C95.5615 32.2187 95.8815 33.7973 96.5215 35.12C97.2042 36.4 98.1428 37.4027 99.3375 38.128C100.575 38.8107 102.026 39.152 103.69 39.152C105.226 39.152 106.612 38.896 107.85 38.384C109.087 37.8293 110.175 37.0187 111.114 35.952L116.49 41.328C114.954 43.12 113.098 44.464 110.922 45.36C108.746 46.256 106.356 46.704 103.753 46.704ZM134.784 46.768C132.949 46.768 131.136 46.5333 129.344 46.064C127.595 45.5947 125.952 44.9333 124.416 44.08C122.923 43.184 121.643 42.16 120.576 41.008L126.144 35.376C127.168 36.4853 128.384 37.36 129.792 38C131.2 38.5973 132.736 38.896 134.4 38.896C135.552 38.896 136.427 38.7253 137.024 38.384C137.664 38.0427 137.984 37.5733 137.984 36.976C137.984 36.208 137.6 35.632 136.832 35.248C136.107 34.8213 135.168 34.4587 134.016 34.16C132.864 33.8187 131.648 33.456 130.368 33.072C129.088 32.688 127.872 32.1547 126.72 31.472C125.568 30.7893 124.629 29.8507 123.904 28.656C123.179 27.4187 122.816 25.8613 122.816 23.984C122.816 21.9787 123.328 20.2507 124.352 18.8C125.376 17.3067 126.827 16.1333 128.704 15.28C130.581 14.4267 132.779 14 135.296 14C137.941 14 140.373 14.4693 142.592 15.408C144.853 16.304 146.688 17.648 148.096 19.44L142.528 25.072C141.547 23.92 140.437 23.1093 139.2 22.64C138.005 22.1707 136.832 21.936 135.68 21.936C134.571 21.936 133.739 22.1067 133.184 22.448C132.629 22.7467 132.352 23.1947 132.352 23.792C132.352 24.432 132.715 24.944 133.44 25.328C134.165 25.712 135.104 26.0533 136.256 26.352C137.408 26.6507 138.624 27.0133 139.904 27.44C141.184 27.8667 142.4 28.4427 143.552 29.168C144.704 29.8933 145.643 30.8747 146.368 32.112C147.093 33.3067 147.456 34.8853 147.456 36.848C147.456 39.8773 146.304 42.288 144 44.08C141.739 45.872 138.667 46.768 134.784 46.768ZM157.185 46V2.032H166.977V46H157.185ZM150.145 23.216V14.896H174.017V23.216H150.145ZM193.066 46.704C189.695 46.704 186.687 46.0213 184.042 44.656C181.439 43.248 179.391 41.3067 177.898 38.832C176.405 36.3573 175.658 33.5627 175.658 30.448C175.658 27.3333 176.383 24.56 177.834 22.128C179.327 19.6533 181.333 17.712 183.85 16.304C186.367 14.896 189.205 14.192 192.362 14.192C195.434 14.192 198.143 14.8533 200.49 16.176C202.837 17.4987 204.671 19.3333 205.994 21.68C207.359 24.0267 208.042 26.7147 208.042 29.744C208.042 30.2987 207.999 30.896 207.914 31.536C207.871 32.1333 207.765 32.8373 207.594 33.648L180.778 33.712V26.992L203.434 26.928L199.21 29.744C199.167 27.952 198.89 26.48 198.378 25.328C197.866 24.1333 197.098 23.2373 196.074 22.64C195.093 22 193.877 21.68 192.426 21.68C190.89 21.68 189.546 22.0427 188.394 22.768C187.285 23.4507 186.41 24.432 185.77 25.712C185.173 26.992 184.874 28.5493 184.874 30.384C184.874 32.2187 185.194 33.7973 185.834 35.12C186.517 36.4 187.455 37.4027 188.65 38.128C189.887 38.8107 191.338 39.152 193.002 39.152C194.538 39.152 195.925 38.896 197.162 38.384C198.399 37.8293 199.487 37.0187 200.426 35.952L205.802 41.328C204.266 43.12 202.41 44.464 200.234 45.36C198.058 46.256 195.669 46.704 193.066 46.704ZM212.769 46V14.896H222.561V46H212.769ZM222.561 28.912L218.465 25.712C219.275 22.0853 220.641 19.2693 222.561 17.264C224.481 15.2587 227.147 14.256 230.561 14.256C232.054 14.256 233.355 14.4907 234.465 14.96C235.617 15.3867 236.619 16.0693 237.473 17.008L231.649 24.368C231.222 23.8987 230.689 23.536 230.049 23.28C229.409 23.024 228.683 22.896 227.873 22.896C226.251 22.896 224.95 23.408 223.969 24.432C223.03 25.4133 222.561 26.9067 222.561 28.912Z" fill="#909090"/>
</svg>
