<svg width="28" height="29" viewBox="0 0 28 29" fill="none" xmlns="http://www.w3.org/2000/svg">
<path d="M14.125 9.24971C11.2906 9.24971 8.99291 11.6003 8.99291 14.5C8.99291 17.3996 11.2906 19.7502 14.125 19.7502C16.9595 19.7502 19.2572 17.3996 19.2572 14.5C19.2572 11.6003 16.9595 9.24971 14.125 9.24971ZM10.7036 14.5C10.7036 12.5669 12.2354 10.9998 14.125 10.9998C16.0147 10.9998 17.5465 12.5669 17.5465 14.5C17.5465 16.4331 16.0147 18.0001 14.125 18.0001C12.2354 18.0001 10.7036 16.4331 10.7036 14.5ZM11.0418 28.1283C12.0535 28.3752 13.09 28.5 14.13 28.5C15.1679 28.4989 16.202 28.3734 17.2114 28.1262C17.4767 28.0608 17.7159 27.9134 17.8964 27.7039C18.0769 27.4945 18.1899 27.2332 18.22 26.9557L18.4513 24.8059C18.4904 24.4215 18.6623 24.0639 18.9362 23.7976C19.21 23.5313 19.5678 23.3738 19.9451 23.3533C20.1959 23.3422 20.4459 23.3901 20.6759 23.4933L22.5967 24.3551C22.7637 24.4319 22.9445 24.4722 23.1276 24.4734C23.3107 24.4746 23.4921 24.4367 23.6601 24.3621C23.8287 24.2884 23.9803 24.1791 24.1048 24.0415C25.5172 22.4841 26.5716 20.6236 27.191 18.5959C27.2721 18.3269 27.2695 18.0388 27.1837 17.7713C27.0979 17.5039 26.9331 17.2703 26.712 17.1027L25.0054 15.8147C24.8021 15.6636 24.6367 15.4655 24.5226 15.2366C24.4085 15.0076 24.3491 14.7542 24.3491 14.4972C24.3491 14.2402 24.4085 13.9868 24.5226 13.7578C24.6367 13.5289 24.8021 13.3308 25.0054 13.1797L26.7065 11.8945C26.9283 11.7267 27.0936 11.4925 27.1794 11.2243C27.2652 10.9561 27.2674 10.6673 27.1855 10.3978C26.5659 8.36984 25.5102 6.50958 24.096 4.95362C23.9086 4.74873 23.6636 4.60839 23.395 4.55197C23.1263 4.49554 22.8471 4.52582 22.596 4.63862L20.6759 5.50386C20.4767 5.59568 20.2607 5.6434 20.0422 5.64387C19.648 5.64325 19.2678 5.49371 18.9747 5.22395C18.6816 4.9542 18.4962 4.58322 18.454 4.18219L18.2214 2.04008C18.1916 1.75893 18.0766 1.49433 17.8926 1.28333C17.7085 1.07233 17.4646 0.925482 17.1949 0.863327C16.1909 0.634016 15.1662 0.512245 14.1375 0.5C13.1016 0.512237 12.0696 0.634241 11.0583 0.864032C10.7889 0.925833 10.5451 1.0722 10.3611 1.28269C10.1771 1.49318 10.062 1.75727 10.0318 2.03799L9.7985 4.18148C9.75478 4.58294 9.56791 4.95381 9.27365 5.22314C8.97306 5.4843 8.59423 5.6325 8.20001 5.64317C7.98256 5.64302 7.76751 5.59678 7.56841 5.50736L5.65241 4.64212C5.40044 4.52831 5.12008 4.49761 4.85029 4.55432C4.5805 4.61102 4.33467 4.75232 4.14698 4.95853C2.73443 6.5148 1.67978 8.37439 1.06017 10.4013C0.978345 10.6707 0.980497 10.9594 1.06633 11.2275C1.15216 11.4955 1.31741 11.7296 1.53917 11.8973L3.24235 13.1825C3.44396 13.3348 3.6079 13.5333 3.72102 13.7621C3.83415 13.9909 3.89333 14.2436 3.8938 14.5C3.89403 14.7568 3.83518 15.0101 3.72201 15.2393C3.60884 15.4685 3.44452 15.6673 3.24235 15.8196L1.53849 17.1069C1.31701 17.2745 1.15193 17.5083 1.06611 17.7761C0.98029 18.0439 0.977968 18.3323 1.05948 18.6015C1.67775 20.6303 2.73226 22.4918 4.14561 24.0492C4.26839 24.1851 4.41755 24.2934 4.58355 24.367C4.75103 24.4423 4.93197 24.4812 5.11491 24.4812C5.29784 24.4812 5.47877 24.4423 5.64625 24.367L7.57525 23.5011C7.77425 23.4113 7.98937 23.3651 8.20684 23.3653H8.21232C8.60499 23.3658 8.98375 23.514 9.2765 23.7817C9.56925 24.0495 9.75552 24.418 9.79986 24.8171L10.0311 26.9571C10.0614 27.235 10.1746 27.4966 10.3555 27.7062C10.5364 27.9158 10.7761 28.0632 11.0418 28.1283ZM16.5599 26.4867C14.9585 26.837 13.3029 26.837 11.7015 26.4867L11.4935 24.6232C11.403 23.7963 11.0182 23.0324 10.4124 22.4772C9.8066 21.9221 9.02223 21.6144 8.2089 21.6131H8.20205C7.74844 21.6112 7.29948 21.7065 6.88412 21.8931L5.21036 22.6442C4.12434 21.3914 3.29567 19.9281 2.77362 18.3411L4.25578 17.221C4.67327 16.9061 5.01261 16.4953 5.24648 16.0216C5.48034 15.5479 5.60218 15.0247 5.60218 14.4941C5.60218 13.9634 5.48034 13.4402 5.24648 12.9665C5.01261 12.4928 4.67327 12.082 4.25578 11.7671L2.77498 10.647C3.29784 9.06188 4.12646 7.60025 5.21173 6.3488L6.8759 7.09923C7.29204 7.28767 7.74218 7.38474 8.19726 7.38415H8.20411C9.01941 7.38257 9.80561 7.07396 10.4127 6.51721C11.0198 5.96045 11.4052 5.19454 11.4955 4.36559L11.7008 2.5035C12.5036 2.33894 13.3196 2.25084 14.1382 2.2403C14.9505 2.25086 15.7601 2.33874 16.5565 2.50282L16.7618 4.36421C16.8496 5.19305 17.2333 5.95956 17.8394 6.51684C18.4456 7.07413 19.2314 7.38297 20.0464 7.38415C20.506 7.39526 20.9618 7.29701 21.378 7.09714L23.0408 6.34739C24.1267 7.59872 24.9556 9.06068 25.4782 10.6463L24.0022 11.7615C23.5817 12.075 23.2396 12.4857 23.0038 12.9601C22.7679 13.4346 22.645 13.9593 22.645 14.4916C22.645 15.0239 22.7679 15.5486 23.0038 16.0231C23.2396 16.4975 23.5817 16.9082 24.0022 17.2217L25.4837 18.3418C24.9606 19.9267 24.1323 21.3882 23.0476 22.64L21.3773 21.891C20.902 21.6751 20.3835 21.5772 19.8643 21.6055C19.345 21.6337 18.8396 21.7872 18.3893 22.0534C17.9391 22.3197 17.5569 22.6911 17.2738 23.1373C16.9906 23.5836 16.8147 24.092 16.7604 24.6211L16.5599 26.4867Z" fill="#909090" stroke="#909090"/>
</svg>
