<svg width="25" height="23" viewBox="0 0 25 23" fill="none" xmlns="http://www.w3.org/2000/svg">
<path d="M13.2491 0.77521C13.9489 0.158268 15.0621 0.646023 15.0621 1.5696V21.4304C15.0621 22.354 13.9489 22.8417 13.2491 22.2248L8.1522 17.7313C7.6108 17.254 6.90892 16.99 6.18137 16.99H3.26087C1.45994 16.99 0 15.5562 0 13.7875V9.21249C0 7.44378 1.45994 6.00997 3.26087 6.00997H6.18137C6.90891 6.00997 7.6108 5.74596 8.1522 5.26865L13.2491 0.77521ZM20.2407 1.98128C20.5338 1.67388 21.0251 1.65802 21.3381 1.94586L21.3447 1.95199C21.1288 1.73994 21.3387 1.94637 21.3387 1.94637L21.3393 1.94695L21.3408 1.94834L21.3447 1.95199L21.3562 1.96282C21.3655 1.9716 21.3779 1.9835 21.3933 1.99852C21.4241 2.02854 21.4666 2.07104 21.5192 2.1259C21.6245 2.2356 21.7704 2.39494 21.9431 2.60316C22.2884 3.01934 22.7426 3.6325 23.195 4.43633C24.1009 6.04581 25 8.42107 25 11.5C25 14.5789 24.1009 16.9542 23.195 18.5637C22.7426 19.3675 22.2884 19.9807 21.9431 20.3968C21.7704 20.6051 21.6245 20.7644 21.5192 20.8741C21.4666 20.929 21.4241 20.9715 21.3933 21.0015C21.3779 21.0165 21.3655 21.0284 21.3562 21.0372L21.3447 21.048L21.3408 21.0517L21.3393 21.053L21.3387 21.0536C21.3387 21.0536 21.7496 20.65 21.3381 21.0541C21.0251 21.342 20.5338 21.3261 20.2407 21.0187C19.9482 20.7119 19.9637 20.2305 20.2752 19.9425L20.2763 19.9414L20.2783 19.9395C20.2819 19.9361 20.2887 19.9296 20.2983 19.9202C20.3176 19.9013 20.3485 19.8706 20.3892 19.8281C20.4708 19.7432 20.5918 19.6113 20.7393 19.4335C21.0346 19.0777 21.4344 18.5395 21.836 17.8259C22.6382 16.4006 23.4472 14.2771 23.4472 11.5C23.4472 8.7229 22.6382 6.59939 21.836 5.17409C21.4344 4.46054 21.0346 3.92232 20.7393 3.56646C20.5918 3.38866 20.4708 3.25683 20.3892 3.17185C20.3485 3.12937 20.3176 3.09865 20.2983 3.0798C20.2887 3.07038 20.2819 3.06393 20.2783 3.06046L20.2763 3.0586L20.2752 3.05755C19.9637 2.76954 19.9481 2.28814 20.2407 1.98128ZM17.754 5.64362C18.0458 5.33503 18.5371 5.31716 18.8513 5.60371L18.8911 5.64122C18.8283 5.58352 18.8518 5.60416 18.8518 5.60416L18.8523 5.60466L18.8536 5.60579L18.8566 5.60863L18.8651 5.61652C18.8718 5.62278 18.8805 5.63102 18.8911 5.64122C18.9123 5.66162 18.941 5.68991 18.9763 5.72592C19.0467 5.79792 19.1433 5.90107 19.2571 6.03422C19.4846 6.30013 19.7831 6.6881 20.0806 7.1889C20.6754 8.1903 21.2733 9.65634 21.2733 11.5C21.2733 13.3437 20.6754 14.8097 20.0806 15.8111C19.7831 16.3119 19.4846 16.6999 19.2571 16.9658C19.1433 17.0989 19.0467 17.2021 18.9763 17.2741C18.941 17.3101 18.9123 17.3384 18.8911 17.3588C18.8867 17.363 18.8827 17.3668 18.879 17.3704C18.8737 17.3754 18.869 17.3798 18.8651 17.3835L18.8566 17.3914L18.8536 17.3942L18.8518 17.3958C18.8518 17.3958 19.0994 17.153 18.8566 17.3914L18.8513 17.3963C18.5371 17.6828 18.0458 17.665 17.754 17.3564C17.4629 17.0484 17.4804 16.5674 17.7926 16.2806L17.7937 16.2797L17.8037 16.2701C17.8144 16.2598 17.8323 16.2422 17.8565 16.2175C17.905 16.168 17.9782 16.09 18.0682 15.9849C18.2483 15.7742 18.4933 15.4569 18.7393 15.0427C19.2315 14.2141 19.7205 13.0114 19.7205 11.5C19.7205 9.98864 19.2315 8.78592 18.7393 7.9573C18.4933 7.5431 18.2483 7.22575 18.0682 7.01509C17.9782 6.90996 17.905 6.83201 17.8565 6.78249C17.8323 6.75775 17.8144 6.74016 17.8037 6.72988L17.7933 6.71999L17.7938 6.72046C17.4801 6.43386 17.4624 5.95207 17.754 5.64362Z" fill="#909090"/>
</svg>
