<svg width="26" height="26" viewBox="0 0 26 26" fill="none" xmlns="http://www.w3.org/2000/svg">
<path d="M11.25 0C10.5596 0 10 0.559644 10 1.25C10 1.94036 10.5596 2.5 11.25 2.5H14.75C15.4404 2.5 16 1.94036 16 1.25C16 0.559644 15.4404 0 14.75 0H11.25ZM11.25 23.5C10.5596 23.5 10 24.0596 10 24.75C10 25.4404 10.5596 26 11.25 26H14.75C15.4404 26 16 25.4404 16 24.75C16 24.0596 15.4404 23.5 14.75 23.5H11.25ZM24.75 16C24.0596 16 23.5 15.4404 23.5 14.75V11.25C23.5 10.5596 24.0596 10 24.75 10C25.4404 10 26 10.5596 26 11.25V14.75C26 15.4404 25.4404 16 24.75 16ZM0 14.75C0 15.4404 0.559644 16 1.25 16C1.94036 16 2.5 15.4404 2.5 14.75L2.5 11.25C2.5 10.5596 1.94036 10 1.25 10C0.559644 10 0 10.5596 0 11.25V14.75ZM6 1.25C6 0.559644 5.44036 0 4.75 0C2.12665 0 0 2.12665 0 4.75C0 5.44036 0.559644 6 1.25 6C1.94036 6 2.5 5.44036 2.5 4.75C2.5 3.50736 3.50736 2.5 4.75 2.5C5.44036 2.5 6 1.94036 6 1.25ZM4.75 26C5.44036 26 6 25.4404 6 24.75C6 24.0596 5.44036 23.5 4.75 23.5C3.50736 23.5 2.5 22.4926 2.5 21.25C2.5 20.5596 1.94036 20 1.25 20C0.559644 20 0 20.5596 0 21.25C0 23.8734 2.12665 26 4.75 26ZM20 1.25C20 0.559644 20.5596 0 21.25 0C23.8734 0 26 2.12665 26 4.75C26 5.44036 25.4404 6 24.75 6C24.0596 6 23.5 5.44036 23.5 4.75C23.5 3.50736 22.4926 2.5 21.25 2.5C20.5596 2.5 20 1.94036 20 1.25ZM21.25 26C20.5596 26 20 25.4404 20 24.75C20 24.0596 20.5596 23.5 21.25 23.5C22.4926 23.5 23.5 22.4926 23.5 21.25C23.5 20.5596 24.0596 20 24.75 20C25.4404 20 26 20.5596 26 21.25C26 23.8734 23.8734 26 21.25 26Z" fill="#717171"/>
</svg>
